<?xml version="1.0" encoding="utf-8"?>
<!-- Generator: Adobe Illustrator 18.0.0, SVG Export Plug-In . SVG Version: 6.00 Build 0)  -->
<!DOCTYPE svg PUBLIC "-//W3C//DTD SVG 1.1//EN" "http://www.w3.org/Graphics/SVG/1.1/DTD/svg11.dtd">
<svg version="1.1" id="Layer_1" xmlns="http://www.w3.org/2000/svg" xmlns:xlink="http://www.w3.org/1999/xlink" x="0px" y="0px"
	 viewBox="0 0 3.7 3.7" enable-background="new 0 0 3.7 3.7" xml:space="preserve">
<g>
	<path fill="#010101" d="M2.7,0.3H0.9c-0.2,0-0.3,0.1-0.3,0.3V3c0,0.2,0.1,0.3,0.3,0.3h1.8C2.9,3.3,3,3.2,3,3V0.6
		C3,0.4,2.9,0.3,2.7,0.3z M2.7,3H0.9V0.6h1.8V3z"/>
	<path fill="#010101" d="M1.3,1.2h1c0.1,0,0.2-0.1,0.2-0.2S2.4,0.9,2.3,0.9h-1C1.2,0.9,1.1,0.9,1.1,1S1.2,1.2,1.3,1.2z"/>
	<path fill="#010101" d="M1.3,1.7h1c0.1,0,0.2-0.1,0.2-0.2S2.4,1.4,2.3,1.4h-1c-0.1,0-0.2,0.1-0.2,0.2S1.2,1.7,1.3,1.7z"/>
	<path fill="#010101" d="M1.3,2.3h0.4c0.1,0,0.2-0.1,0.2-0.2C1.8,2,1.7,2,1.7,2H1.3C1.2,2,1.1,2,1.1,2.1C1.1,2.2,1.2,2.3,1.3,2.3z"
		/>
</g>
</svg>
